# xmcd
#
# Track frame offsets:
#	150
#	12742
#	27676
#	39741
#	54955
#	68100
#	78529
#	89552
#	104740
#	115444
#
# Disc length: 1743 seconds
#
# Revision: 1
# Processed by: cddbd v1.5.2PL0 Copyright (c) Steve Scherf et al.
# Submitted via: audiograbber 1.83.01
#
DISCID=9106cd0a
DTITLE=George Jones - The Battle
DYEAR=1976
DGENRE=Country
TTITLE0=The Battle
TTITLE1=I Can't Get Over What Lovin You Has Done
TTITLE2=Baby, There Nothing Like You
TTITLE3=You Always Look Your Best
TTITLE4=The Nightime (And My Baby)
TTITLE5=I'll Come Back
TTITLE6=Wean Me
TTITLE7=Love Coming Down
TTITLE8=Billy Ray Wrote A Song
TTITLE9=I Still Sing The Old Songs
EXTD=
EXTT0=
EXTT1=
EXTT2=
EXTT3=
EXTT4=
EXTT5=
EXTT6=
EXTT7=
EXTT8=
EXTT9=
PLAYORDER=
